<mxfile host="app.diagrams.net" modified="2024-04-09T03:13:51.671Z" agent="Mozilla/5.0 (Windows NT 10.0; Win64; x64) AppleWebKit/537.36 (KHTML, like Gecko) Chrome/123.0.0.0 Safari/537.36" etag="KpRlwoM4D2Zl6kroi7fs" version="24.2.2" type="google">
  <diagram name="PÃ¡gina-1" id="PNHoBZIL6JFSgOUNzMXH">
    <mxGraphModel grid="1" page="1" gridSize="10" guides="1" tooltips="1" connect="1" arrows="1" fold="1" pageScale="1" pageWidth="827" pageHeight="1169" math="0" shadow="0">
      <root>
        <mxCell id="0" />
        <mxCell id="1" parent="0" />
        <mxCell id="LuYdbRBV4z9gpuXvAEJp-1" value="" style="rounded=0;whiteSpace=wrap;html=1;" vertex="1" parent="1">
          <mxGeometry x="202.5" y="280" width="190" height="70" as="geometry" />
        </mxCell>
        <mxCell id="LuYdbRBV4z9gpuXvAEJp-22" value="" style="rounded=0;whiteSpace=wrap;html=1;" vertex="1" parent="1">
          <mxGeometry x="207.5" y="140" width="5" height="260" as="geometry" />
        </mxCell>
        <mxCell id="LuYdbRBV4z9gpuXvAEJp-2" style="edgeStyle=orthogonalEdgeStyle;rounded=0;orthogonalLoop=1;jettySize=auto;html=1;entryX=-0.008;entryY=0.298;entryDx=0;entryDy=0;entryPerimeter=0;" edge="1" parent="1" target="LuYdbRBV4z9gpuXvAEJp-8">
          <mxGeometry relative="1" as="geometry">
            <mxPoint x="212.5" y="220" as="sourcePoint" />
            <mxPoint x="370" y="220" as="targetPoint" />
            <Array as="points">
              <mxPoint x="233" y="220" />
            </Array>
          </mxGeometry>
        </mxCell>
        <mxCell id="LuYdbRBV4z9gpuXvAEJp-5" value="&lt;font style=&quot;vertical-align: inherit;&quot;&gt;&lt;font style=&quot;vertical-align: inherit;&quot;&gt;&lt;font style=&quot;vertical-align: inherit;&quot;&gt;&lt;font style=&quot;vertical-align: inherit;&quot;&gt;recibir_notificaciones()&lt;/font&gt;&lt;/font&gt;&lt;/font&gt;&lt;/font&gt;" style="text;html=1;align=center;verticalAlign=middle;resizable=0;points=[];autosize=1;strokeColor=none;fillColor=none;rotation=0;" vertex="1" parent="1">
          <mxGeometry x="217.5" y="190" width="140" height="30" as="geometry" />
        </mxCell>
        <mxCell id="LuYdbRBV4z9gpuXvAEJp-7" value="&lt;font style=&quot;vertical-align: inherit;&quot;&gt;&lt;font style=&quot;vertical-align: inherit;&quot;&gt;enviar_datos(ubicacion)&lt;/font&gt;&lt;/font&gt;" style="text;html=1;align=center;verticalAlign=middle;resizable=0;points=[];autosize=1;strokeColor=none;fillColor=none;rotation=0;" vertex="1" parent="1">
          <mxGeometry x="392.5" y="240" width="150" height="30" as="geometry" />
        </mxCell>
        <mxCell id="LuYdbRBV4z9gpuXvAEJp-8" value="" style="rounded=0;whiteSpace=wrap;html=1;" vertex="1" parent="1">
          <mxGeometry x="372.5" y="160" width="5" height="200" as="geometry" />
        </mxCell>
        <mxCell id="LuYdbRBV4z9gpuXvAEJp-10" value="" style="rounded=0;whiteSpace=wrap;html=1;" vertex="1" parent="1">
          <mxGeometry x="557.5" y="270" width="5" height="110" as="geometry" />
        </mxCell>
        <mxCell id="LuYdbRBV4z9gpuXvAEJp-11" value="" style="endArrow=none;dashed=1;html=1;rounded=0;exitX=0.5;exitY=0;exitDx=0;exitDy=0;entryX=0.506;entryY=1.07;entryDx=0;entryDy=0;entryPerimeter=0;" edge="1" parent="1" source="LuYdbRBV4z9gpuXvAEJp-10">
          <mxGeometry width="50" height="50" relative="1" as="geometry">
            <mxPoint x="501.5" y="300" as="sourcePoint" />
            <mxPoint x="557.8" y="142.80000000000007" as="targetPoint" />
          </mxGeometry>
        </mxCell>
        <mxCell id="LuYdbRBV4z9gpuXvAEJp-13" value="" style="rounded=0;whiteSpace=wrap;html=1;" vertex="1" parent="1">
          <mxGeometry x="202.5" y="280" width="30" height="20" as="geometry" />
        </mxCell>
        <mxCell id="LuYdbRBV4z9gpuXvAEJp-14" value="ALT" style="text;html=1;align=center;verticalAlign=middle;resizable=0;points=[];autosize=1;strokeColor=none;fillColor=none;" vertex="1" parent="1">
          <mxGeometry x="197.5" y="275" width="40" height="30" as="geometry" />
        </mxCell>
        <mxCell id="LuYdbRBV4z9gpuXvAEJp-15" value="mostrar_mensaje_error()" style="html=1;verticalAlign=bottom;endArrow=open;dashed=1;endSize=8;curved=0;rounded=0;entryX=0.76;entryY=0.61;entryDx=0;entryDy=0;entryPerimeter=0;" edge="1" parent="1">
          <mxGeometry relative="1" as="geometry">
            <mxPoint x="372.5" y="320" as="sourcePoint" />
            <mxPoint x="211.3" y="320.8" as="targetPoint" />
          </mxGeometry>
        </mxCell>
        <mxCell id="LuYdbRBV4z9gpuXvAEJp-16" value="enviar_notifiaciones_tiempoReal()" style="html=1;verticalAlign=bottom;endArrow=open;dashed=1;endSize=8;curved=0;rounded=0;exitX=0;exitY=1;exitDx=0;exitDy=0;entryX=0.8;entryY=0.858;entryDx=0;entryDy=0;entryPerimeter=0;" edge="1" parent="1" source="LuYdbRBV4z9gpuXvAEJp-10">
          <mxGeometry relative="1" as="geometry">
            <mxPoint x="712.5" y="380" as="sourcePoint" />
            <mxPoint x="211.5" y="380" as="targetPoint" />
          </mxGeometry>
        </mxCell>
        <mxCell id="LuYdbRBV4z9gpuXvAEJp-17" value="Cliente" style="rounded=0;whiteSpace=wrap;html=1;" vertex="1" parent="1">
          <mxGeometry x="170" y="100" width="80" height="40" as="geometry" />
        </mxCell>
        <mxCell id="LuYdbRBV4z9gpuXvAEJp-18" value="Usuario" style="rounded=0;whiteSpace=wrap;html=1;" vertex="1" parent="1">
          <mxGeometry x="335" y="100" width="80" height="40" as="geometry" />
        </mxCell>
        <mxCell id="LuYdbRBV4z9gpuXvAEJp-20" value="API" style="rounded=0;whiteSpace=wrap;html=1;" vertex="1" parent="1">
          <mxGeometry x="520" y="110" width="80" height="40" as="geometry" />
        </mxCell>
        <mxCell id="LuYdbRBV4z9gpuXvAEJp-21" value="" style="endArrow=none;dashed=1;html=1;rounded=0;exitX=0.5;exitY=0;exitDx=0;exitDy=0;entryX=0.5;entryY=1;entryDx=0;entryDy=0;" edge="1" parent="1" source="LuYdbRBV4z9gpuXvAEJp-8" target="LuYdbRBV4z9gpuXvAEJp-18">
          <mxGeometry width="50" height="50" relative="1" as="geometry">
            <mxPoint x="322.5" y="190" as="sourcePoint" />
            <mxPoint x="372.5" y="140" as="targetPoint" />
          </mxGeometry>
        </mxCell>
        <mxCell id="fQ4AJpYmRDkfuaQsUVIg-3" value="" style="endArrow=classic;html=1;rounded=0;exitX=0.1;exitY=0.55;exitDx=0;exitDy=0;exitPerimeter=0;entryX=0;entryY=0;entryDx=0;entryDy=0;" edge="1" parent="1" source="LuYdbRBV4z9gpuXvAEJp-8" target="LuYdbRBV4z9gpuXvAEJp-10">
          <mxGeometry width="50" height="50" relative="1" as="geometry">
            <mxPoint x="390" y="430" as="sourcePoint" />
            <mxPoint x="440" y="380" as="targetPoint" />
          </mxGeometry>
        </mxCell>
      </root>
    </mxGraphModel>
  </diagram>
</mxfile>
